<?xml version="1.0" standalone="no"?><!DOCTYPE svg PUBLIC "-//W3C//DTD SVG 1.1//EN" "http://www.w3.org/Graphics/SVG/1.1/DTD/svg11.dtd"><svg t="1761903122291" class="icon" viewBox="0 0 1024 1024" version="1.1" xmlns="http://www.w3.org/2000/svg" p-id="7026" xmlns:xlink="http://www.w3.org/1999/xlink" width="200" height="200"><path d="M435.84 720.64v19.2a304 304 0 1 1 0-608 304 304 0 0 1 0 608v-19.2z m354.24-28.544l-0.128-0.128-2.752-2.176-12.48-11.072 9.152-13.888a416.64 416.64 0 1 0-119.104 119.04l13.888-9.152 11.072 12.48 2.24 2.752c0.64 0.832 0.64 0.832 0.128 0.256l194.24 193.152a69.376 69.376 0 0 0 98.176-98.048l-193.92-192.832-0.512-0.384z" fill="#ffffff" p-id="7027"></path></svg>